<?xml version="1.0" encoding="UTF-8"?>
<svg width="22px" height="22px" viewBox="0 0 22 22" version="1.1" xmlns="http://www.w3.org/2000/svg" xmlns:xlink="http://www.w3.org/1999/xlink">
    <!-- Generator: Sketch 45.2 (43514) - http://www.bohemiancoding.com/sketch -->
    <title>Logo-nav</title>
    <desc>Created with Sketch.</desc>
    <defs></defs>
    <g id="Page-1" stroke="none" stroke-width="1" fill="none" fill-rule="evenodd">
        <g id="logo-&amp;-icon" transform="translate(-49.000000, -75.000000)" fill="#E82A34">
            <path d="M62.5265207,90.8954312 C62.8946742,90.6848878 63.2634225,90.4214112 63.5792376,90.1585293 C63.789781,90.0003244 64.0003244,89.7903758 64.1579346,89.5792376 C65.0001081,88.5794539 65.5264666,87.368532 65.5264666,86.0005948 C65.5264666,82.9477156 63.0522844,80.4741281 60,80.4741281 C59.3683698,80.4741281 58.7367397,80.5793998 58.2103812,80.7899432 L54.3682617,76.526737 C55.9996756,75.5792917 57.9474993,75 60,75 C66.1051636,75 71,79.8948364 71,86.0005948 C71,92.0528251 66.1051636,97.0005948 60,97.0005948 C57.0000541,97.0005948 54.26299,95.7896729 52.2628278,93.7901054 L65.73701,93.7901054 L65.8422817,93.684239 L51.6317924,93.105542 L51.5259259,93.0002703 L66.5785888,93.0002703 L66.631522,92.8949986 L50.8948905,92.1580968 L50.8419573,92.1057583 L56.9471208,92.1057583 C56.9471208,92.1057583 60.0523385,92.21103 62.5265207,90.8954312 L62.5265207,90.8954312 Z M49.9997837,90.6325493 C49.9474453,90.4214112 49.8421736,90.2108678 49.7369019,90.0003244 L53.0526629,90.0003244 L53.6313598,90.6325493 L58.5261963,90.6325493 L57.4734793,91.7376048 L51.421249,91.7376048 C51.2630441,91.1583131 50.6843471,90.6848878 49.9997837,90.6325493 L49.9997837,90.6325493 Z M49.6316302,89.6321709 C49.2105434,88.4741822 49,87.2638551 49,86.0005948 C49,85.2636929 49.0523385,84.5791295 49.2105434,83.8951609 L54.5258719,85.7900514 L54.5258719,86.0005948 C54.5258719,87.2638551 54.9475534,88.4741822 55.7367937,89.4210327 L55.7891322,89.4210327 C55.3157069,88.5794539 55.0528251,87.6320087 55.0528251,86.6322249 C55.0528251,86.4216815 55.0528251,86.2111381 55.1051636,86.0005948 L60.7898351,88.000757 L60.7898351,89.6321709 L49.6316302,89.6321709 Z M60.7898351,85.8953231 L56.4207624,83.0006488 C56.9471208,82.3690187 57.6316842,81.8949986 58.4209246,81.5791836 L60.7898351,83.9474993 L60.7898351,85.8953231 Z M60.7898351,87.7896188 L55.1580968,85.6318464 C55.3157069,84.7896729 55.6844553,83.9474993 56.210219,83.2635307 L60.7898351,86.1582049 L60.7898351,87.7896188 Z M54.5258719,85.4213031 L49.3158151,83.4217356 C49.6316302,82.1584753 50.1050554,81.0004866 50.7896188,79.9477697 L55.4739119,82.8424439 C54.9475534,83.5793458 54.6317383,84.4744526 54.5258719,85.4213031 L54.5258719,85.4213031 Z M55.7367937,82.5266288 L51.1577724,79.4743444 C51.8946742,78.4739659 52.7891863,77.5794539 53.8419032,76.8948905 L57.7892944,80.9475534 C57.0000541,81.3163017 56.2631522,81.8426602 55.7367937,82.5266288 L55.7367937,82.5266288 Z" id="Logo-nav"></path>
        </g>
    </g>
</svg>